<svg xmlns="http://www.w3.org/2000/svg" width="1200" height="320" viewBox="0 0 1200 320" fill="none">
  <defs>
    <linearGradient id="pfl_orbit" x1="41" y1="24" x2="236" y2="252" gradientUnits="userSpaceOnUse">
      <stop stop-color="#C4B5FD"/>
      <stop offset="0.55" stop-color="#8B5CF6"/>
      <stop offset="1" stop-color="#6D28D9"/>
    </linearGradient>
    <radialGradient id="pfl_glow" cx="0" cy="0" r="1" gradientUnits="userSpaceOnUse" gradientTransform="translate(146 154) rotate(90) scale(108)">
      <stop stop-color="#A78BFA" stop-opacity="0.26"/>
      <stop offset="1" stop-color="#A78BFA" stop-opacity="0"/>
    </radialGradient>
  </defs>

  <g>
    <rect x="24" y="24" width="244" height="244" rx="72" fill="#141221"/>
    <rect x="24.75" y="24.75" width="242.5" height="242.5" rx="71.25" stroke="rgba(255,255,255,0.08)" stroke-width="1.5"/>
    <circle cx="146" cy="154" r="108" fill="url(#pfl_glow)"/>
    <path
      d="M146 66
         C202.89 66 249 112.11 249 169
         C249 225.89 202.89 272 146 272
         C94.31 272 52.27 233.68 43.8 184.1"
      stroke="rgba(255,255,255,0.10)"
      stroke-width="13"
      stroke-linecap="round"
    />
    <path
      d="M146 66
         C202.89 66 249 112.11 249 169
         C249 225.89 202.89 272 146 272
         C94.31 272 52.27 233.68 43.8 184.1"
      stroke="url(#pfl_orbit)"
      stroke-width="13"
      stroke-linecap="round"
      pathLength="100"
      stroke-dasharray="78 22"
    />
    <circle cx="146" cy="169" r="11" fill="#C4B5FD"/>
    <path d="M146 169V112" stroke="#F5F3FF" stroke-width="13" stroke-linecap="round"/>
    <path d="M146 169L191 196" stroke="#A78BFA" stroke-width="11" stroke-linecap="round"/>
    <path d="M74 51H119" stroke="#F5F3FF" stroke-opacity="0.72" stroke-width="10" stroke-linecap="round"/>
  </g>

  <g fill="#F5F3FF">
    <path d="M372 212V96H424.57C450.89 96 467.2 111.03 467.2 135.92C467.2 160.38 450.89 175.55 424.57 175.55H395.37V212H372ZM395.37 156.25H421.44C435.44 156.25 443.57 149.01 443.57 136.01C443.57 122.91 435.44 115.3 421.44 115.3H395.37V156.25Z"/>
    <path d="M535.66 214.89C506.79 214.89 487.57 196.59 487.57 168.77C487.57 141.23 507.17 122.37 534.51 122.37C561.57 122.37 579.62 140.2 579.62 166.47V173.67H510.54C511.95 188.01 521.19 197.06 536.04 197.06C546.69 197.06 554.63 192.55 557.88 185.55H578.81C573.64 203.89 557.88 214.89 535.66 214.89ZM510.92 158.82H556.85C555.34 146.66 546.41 139.92 534.23 139.92C522.33 139.92 513.58 146.94 510.92 158.82Z"/>
    <path d="M648.63 214.89C621.11 214.89 601.41 195.84 601.41 168.58C601.41 141.23 621.11 122.37 648.63 122.37C672.41 122.37 690.65 136.39 693.62 157.69H671.78C669.12 147.69 660.94 141.04 648.72 141.04C633.87 141.04 624.01 152.42 624.01 168.58C624.01 184.92 633.68 196.22 648.82 196.22C660.85 196.22 669.03 189.85 671.88 179.57H693.72C690.46 201.05 672.69 214.89 648.63 214.89Z"/>
    <path d="M727.62 212V142.45H707.39V125.27H727.62V104.33H749.63V125.27H776.44V142.45H749.63V212H727.62Z"/>
    <path d="M841.72 214.89C814.09 214.89 794.01 195.84 794.01 168.58C794.01 141.23 814.09 122.37 841.72 122.37C869.34 122.37 889.42 141.23 889.42 168.58C889.42 195.84 869.34 214.89 841.72 214.89ZM841.72 196.6C856.5 196.6 866.85 185.49 866.85 168.58C866.85 151.58 856.5 140.67 841.72 140.67C826.93 140.67 816.59 151.58 816.59 168.58C816.59 185.49 826.93 196.6 841.72 196.6Z"/>
    <path d="M932.9 212L899.4 125.27H922.46L944.17 187.35H945.31L967.11 125.27H989.83L956.33 212H932.9Z"/>
    <path d="M1053.53 214.89C1025.9 214.89 1005.82 195.84 1005.82 168.58C1005.82 141.23 1025.9 122.37 1053.53 122.37C1081.15 122.37 1101.23 141.23 1101.23 168.58C1101.23 195.84 1081.15 214.89 1053.53 214.89ZM1053.53 196.6C1068.31 196.6 1078.65 185.49 1078.65 168.58C1078.65 151.58 1068.31 140.67 1053.53 140.67C1038.74 140.67 1028.4 151.58 1028.4 168.58C1028.4 185.49 1038.74 196.6 1053.53 196.6Z"/>
  </g>
</svg>
